<svg xmlns="http://www.w3.org/2000/svg" width="24" height="24" viewBox="0 0 24 24">
  <path d="M17.5 2C19.99 2 22 4.01 22 6.5c0 1.32-.57 2.55-1.55 3.4a9 9 0 1 1-16.9 0A4.49 4.49 0 0 1 2 6.5C2 4.01 4.01 2 6.5 2a4.5 4.5 0 0 1 3.84 2.15C10.88 4.05 11.43 4 12 4c.57 0 1.12.05 1.66.15C14.46 2.83 15.91 2 17.5 2zM12 6c-3.87 0-7 3.13-7 7s3.13 7 7 7 7-3.13 7-7-3.13-7-7-7zm0 1.5c.51 0 .94.39.99.88l.01.12v3.96l2.55 1.7c.43.28.56.84.34 1.29l-.06.1c-.28.43-.84.56-1.29.34l-.1-.06-3-2c-.24-.16-.4-.42-.44-.71l-.01-.12V8.5c0-.55.45-1 1-1zM6.5 4A2.5 2.5 0 0 0 4 6.5c0 .56.18 1.09.51 1.51a9.01 9.01 0 0 1 3.81-3.23c-.46-.49-1.11-.79-1.82-.79zm11 0c-.7 0-1.36.29-1.82.78a9.06 9.06 0 0 1 3.81 3.23c.32-.43.51-.95.51-1.51A2.5 2.5 0 0 0 17.5 4zM13 1c.55 0 1 .45 1 1 0 .51-.39.94-.88.99L13 3h-2c-.55 0-1-.45-1-1 0-.51.39-.94.88-.99L11 1z"/>
</svg>
