<svg width="24" height="24" viewBox="0 0 24 24" fill="none" xmlns="http://www.w3.org/2000/svg">
<path fill-rule="evenodd" clip-rule="evenodd" d="M14 2C15.6569 2 17 3.34315 17 5V6H19C20.6569 6 22 7.34315 22 9V19C22 20.6569 20.6569 22 19 22H5C3.34315 22 2 20.6569 2 19V9C2 7.34315 3.34315 6 5 6H7V5C7 3.34315 8.34315 2 10 2H14ZM19 8H5C4.48716 8 4.06449 8.38604 4.00673 8.88338L4 9V19C4 19.5128 4.38604 19.9355 4.88338 19.9933L5 20H19C19.5128 20 19.9355 19.614 19.9933 19.1166L20 19V9C20 8.48716 19.614 8.06449 19.1166 8.00673L19 8ZM14 4H10C9.48716 4 9.06449 4.38604 9.00673 4.88338L9 5V6H15V5C15 4.48716 14.614 4.06449 14.1166 4.00673L14 4Z" fill="black"/>
</svg>
