<svg xmlns="http://www.w3.org/2000/svg" width="24" height="24" viewBox="0 0 24 24">
  <path d="M17 2c.51 0 .94.39.99.88L18 3v1c1.6 0 2.9 1.25 2.99 2.82L21 7v12c0 1.6-1.25 2.9-2.82 2.99L18 22H6c-1.6 0-2.9-1.25-2.99-2.82L3 19V7c0-1.6 1.25-2.9 2.82-2.99L6 4V3c0-.55.45-1 1-1 .51 0 .94.39.99.88L8 3v1h8V3c0-.55.45-1 1-1zm2 8H5v9c0 .51.39.94.88.99L6 20h12c.51 0 .94-.39.99-.88L19 19zm-3 2c.51 0 .94.39.99.88L17 13v4c0 .51-.39.94-.88.99L16 18h-4c-.51 0-.94-.39-.99-.88L11 17v-4c0-.51.39-.94.88-.99L12 12zm-1 2h-2v2h2zm3-8H6c-.51 0-.94.39-.99.88L5 7v1h14V7c0-.51-.39-.94-.88-.99z"/>
</svg>
