<svg xmlns="http://www.w3.org/2000/svg" width="24" height="24" viewBox="0 0 24 24">
  <path d="M12 2c5.52 0 10 4.48 10 10s-4.48 10-10 10S2 17.52 2 12 6.48 2 12 2zm0 2c-4.42 0-8 3.58-8 8s3.58 8 8 8 8-3.58 8-8-3.58-8-8-8zm-.25 12c.55 0 1 .45 1 1s-.45 1-1 1-1-.45-1-1 .45-1 1-1zm3.49-8.55c1 1.56.48 3.37-1.09 4.74l-.67.56-.26.23c-.46.43-.61.69-.63.95V14c0 .55-.45 1-1 1s-1-.45-1-1c0-1.19.56-1.95 2.12-3.21.99-.8 1.25-1.62.85-2.25-.39-.61-2.01-.75-3.42-.15a.991.991 0 0 1-1.31-.53c-.22-.51.02-1.1.53-1.31 2.2-.93 4.85-.7 5.88.91z"/>
</svg>
